<svg xmlns="http://www.w3.org/2000/svg" xmlns:xlink="http://www.w3.org/1999/xlink" version="1.1"
    id="katman_1" x="0px" y="0px" style="enable-background:new 0 0 2949.9 1797.2;"
    xml:space="preserve" viewBox="228 724.8 2493.8 348.6"><g>	<path class="st0" d="M1481.5,836.3c1.5-29.3,12-53.2,28.4-71.9v-24.9h-21.8c-44.1,0-81.4,16.9-103.1,55.1h-1.3v-50.9h-113.1V1054   h113.1V928.7c0-53.2,15.6-93.7,78.3-93.7C1468.9,835.1,1475.3,835.4,1481.5,836.3L1481.5,836.3z M2338,835.1   c9.4-27.4,24.6-51.9,44.4-71.5v-24.2h-21.8c-44.1,0-81.4,16.9-103.2,55.1h-1.2v-50.8H2143V1054h113.2V928.7   c0-53.2,15.6-93.7,78.4-93.7L2338,835.1z M1711.2,823.5c-17.5-9.1-41.7-15.1-61.1-15.1c-13,0-35.4,5.4-35.4,21.2   c0,21.2,35.4,24.2,51,27.3c52.7,10.3,92.6,34.5,92.6,91.9c0,81.6-76.5,115.6-150.5,115.6c-45.4,0-90.1-12.7-128.7-35.7l41-76.9   c23,15.8,61.5,31.5,89.5,31.5c14.3,0,35.4-6.6,35.4-23.6c0-24.2-35.4-25.5-70.9-34.5c-35.4-9.1-70.8-26-70.8-81.6   c0-76.2,70.8-110.1,140.6-110.1c36.1,0,72.1,5.4,105,19.9L1711.2,823.5L1711.2,823.5z M2721.7,1054h-113.1v-34.5h-1.2   c-19.9,30.8-59.2,44.7-96.4,44.7c-94.6,0-161-76.8-161-165.8c0-88.8,65.3-165.1,159.8-165.1c36.7,0,75.3,13.3,98.9,40.5v-30.2   h113.1L2721.7,1054L2721.7,1054z M2466.8,899.1c0,39.3,26.8,69.5,72.7,69.5c46,0,72.7-30.2,72.7-69.5c0-38.1-26.7-70.2-72.7-70.2   C2493.6,829,2466.8,861,2466.8,899.1z M2125.2,917.3H1887c0,44.7,24.3,68.9,70.9,68.9c24.2,0,41.6-7.8,54.1-28.4h108.8   c-18,73.2-89.6,106.5-162.3,106.5c-105.6,0-184.6-58.1-184.6-165.1c0-103.4,72.7-165.7,176.5-165.7c110.7,0,174.8,66.6,174.8,172.4   L2125.2,917.3L2125.2,917.3z M2020.1,853.8c-5.6-29.6-33.6-49-64-49c-33,0-60.2,16.9-67.2,49H2020.1z M910.7,893.7   c-0.1-2.7-0.3-5.3-0.5-7.9v-0.1c-2.5-28.8-12.1-55.7-28.2-80.1c-7.1-10.7-15.4-20.6-24.7-29.6c-13.5-13-29-23.7-46.6-32.1   c-26.4-12.6-55.6-19-86.8-19c-3,0-6.2,0-9.4,0.2c-21.9,1-43.1,5.1-63,12.5c-20.1,7.3-37.5,16.8-51.8,28.3c-2.9,2.3-6.1,5.1-9.5,8.3   l-2.5,2.4l-3.3,3.6h0l-1.6,1.5l-0.8,0.8l-4,4.2c-2.9,3.2-5.7,6.5-8.4,9.9l0,0l-0.1-0.1c-5.5,6.7-10.5,13.5-14.2,19.7   c-2.5,4-5,8-7.3,12.1l-32.6,66l0,0l-1.7,3.3l-3.6,7.3c-7.2,14.5-14.8,28.9-23.4,40.8c-19.1,20.9-40.7,31.2-68.4,31.2   c-1.9,0-3.9-0.1-6-0.2c-16.7-0.7-31.1-4.6-43.8-12.1c-1.3-0.8-2.7-1.6-4-2.5c-10.4-6.9-18.3-15.8-24.3-26.8   c-6.7-12.5-9.7-25.4-9.3-38.9c0-0.4,0-0.7,0-1c0.9-21.6,9.1-38.4,25.7-52.9c4-3.4,8.2-6.4,12.7-9.1c0.6-0.4,1.2-0.7,1.9-1   c12.3-6.7,26.4-10.1,42.5-10.1l5,0.1c25.6,1,45.3,9,61,24.5l49.3-88.5c-11.8-7.9-25.1-14.7-39.8-20.2c-0.6-0.2-1.1-0.4-1.7-0.6   c-1.8-0.6-3.5-1.3-5.3-1.9c-15.6-5.2-32-8.4-48.8-9.9c-0.4-0.1-0.9-0.1-1.3-0.2c-2.6-0.2-5.2-0.5-7.8-0.6c-2.8-0.1-5.6-0.2-8.4-0.2   h-1.6c-31,0.1-59.8,6.5-86.2,19c-29.5,14.2-53.4,34.9-71.2,61.6c-17.7,26.7-27.3,56.3-28.7,88.1c-0.1,2.7-0.2,5.4-0.2,8.1   c0,44.5,16.2,83.6,48.4,116.4c33.6,34.4,77.4,53,129.9,55.2c3.4,0.1,6.7,0.2,10,0.2c29.7,0,57.2-5.3,81.9-15.9   c6.2-2.6,12.1-5.7,18.3-9.2c3.3-1.9,6.5-4,9.6-6.1l2.3-1.5l3.9-2.7c4.6-3.4,9.1-7,13.3-10.8l1.5-1.4c2.5-2.4,5-4.8,7.3-7.3l8.8-10   l3.4-4.2l1.6-2.3l1.6-2.3c13.1-22.1,55.9-102.4,55.9-102.4v-0.2l2.5-4.9l2.1-3.8c6.3-11.5,10.9-19.6,16.9-28.2l0.2-0.3   c14.1-20.4,38.2-34.9,66.7-37.4c47.8-4.1,89.7,27.3,93.5,70.1c3.8,42.9-31.8,80.9-79.6,85.1c-10,0.9-19.6,0.2-28.7-1.8l-0.2,0.1   c-35.1-7.3-57.4-32.9-68.4-44.3l-46,84.6c0,0,14.3,14.4,24.1,21.6c9.8,7.2,22.5,14.2,32.6,18.6c24.5,10.5,51.2,16.8,80.7,16.8   c3.4,0,2.7,0,6.3-0.1c52.5-2.2,99.3-22.3,133-56.8c32-32.7,49.3-70.1,49.5-114.3v-1.3C910.9,898.7,910.8,896.2,910.7,893.7   L910.7,893.7z M1086.7,1064.5c-23.9,0-45.5-2.8-64.9-8.3s-36-14.3-49.7-26.3c-13.8-12-24.4-27.3-31.9-45.8   c-7.5-18.5-11.2-40.9-11.2-66.9V743.6H1038v172.1c0,19.5,4.7,33.6,14,42.5c9.3,8.8,21.2,13.3,35.5,13.3c14.7,0,26.6-4.1,35.8-12.4   c9.1-8.2,13.8-21.9,13.8-41.1V743.6h109.1v171.2c0,27-3.8,49.9-11.5,68.8c-7.6,18.9-18.4,34.3-32.3,46.3   c-13.9,12-30.7,20.7-50.5,26.3C1132.2,1061.7,1110.5,1064.5,1086.7,1064.5L1086.7,1064.5z"></path></g></svg>