<svg xmlns="http://www.w3.org/2000/svg" version="1.0"
  viewBox="0.1 0 846.9 130">
  <g transform="translate(0.000000,130.000000) scale(0.100000,-0.100000)" fill="currentColor"
    stroke="none">
    <path
      d="M750 1121 l0 -179 -47 15 c-268 83 -549 -26 -661 -256 -33 -70 -37 -84 -40 -181 -3 -88 0 -115 18 -169 52 -156 165 -263 333 -316 255 -81 532 32 645 263 l37 77 3 463 3 462 -146 0 -145 0 0 -179z m-112 -438 c114 -71 144 -197 73 -303 -74 -111 -207 -140 -314 -69 -130 86 -143 258 -26 352 82 64 184 72 267 20z"></path>
    <path
      d="M7180 1125 l0 -175 -60 0 -59 0 -11 -42 c-6 -24 -20 -75 -31 -114 -10 -38 -19 -76 -19 -82 0 -8 27 -12 89 -12 l88 0 5 -213 c5 -188 8 -219 28 -271 52 -136 171 -206 350 -206 l59 0 20 68 c11 37 29 99 40 138 12 39 21 74 21 77 0 3 -24 3 -54 0 -65 -7 -119 9 -146 44 -18 23 -20 40 -20 194 l0 169 59 0 c48 0 61 3 65 18 16 51 56 209 56 220 0 9 -25 12 -90 12 l-90 0 0 175 0 175 -150 0 -150 0 0 -175z"></path>
    <path
      d="M1470 974 c-184 -39 -329 -175 -375 -349 -43 -168 4 -345 125 -465 158 -156 387 -194 585 -95 119 60 117 47 34 166 -40 57 -75 108 -79 112 -4 5 -29 -7 -55 -25 -43 -30 -53 -33 -123 -33 -71 0 -81 3 -126 34 -34 24 -55 48 -72 85 l-24 51 360 3 360 2 0 58 c-1 220 -163 408 -396 457 -84 18 -129 18 -214 -1z m208 -280 c29 -14 52 -30 52 -35 0 -5 -67 -9 -151 -9 -140 0 -150 1 -138 17 23 27 91 53 140 53 29 0 64 -9 97 -26z"></path>
    <path
      d="M3730 974 c-184 -39 -341 -194 -379 -372 -64 -303 175 -592 489 -592 106 0 242 44 308 100 l24 19 -78 111 c-42 60 -80 110 -84 110 -4 0 -14 -7 -21 -17 -42 -50 -162 -68 -234 -34 -62 29 -125 105 -125 152 0 5 141 9 354 9 306 0 355 2 360 15 8 21 -9 142 -28 192 -57 158 -199 275 -373 309 -90 17 -128 17 -213 -2z m191 -269 c19 -8 45 -23 59 -35 l25 -20 -160 0 c-140 0 -158 2 -145 15 50 49 156 69 221 40z"></path>
    <path
      d="M5509 975 c-169 -34 -316 -162 -369 -320 -28 -85 -29 -215 -2 -302 77 -246 337 -388 602 -327 58 13 164 64 194 95 6 5 -17 47 -59 109 -87 126 -89 129 -118 102 -111 -105 -304 -47 -351 106 l-7 22 360 0 361 0 0 45 c0 226 -165 421 -397 470 -81 18 -126 17 -214 0z m197 -276 c23 -11 48 -27 54 -35 11 -12 -9 -14 -146 -14 l-159 0 25 21 c65 52 154 63 226 28z"></path>
    <path
      d="M6476 979 c-115 -17 -230 -90 -272 -172 -41 -78 -46 -123 -51 -450 l-5 -317 151 0 151 0 0 294 c0 162 4 306 9 319 24 63 106 89 160 51 47 -33 51 -62 51 -374 l0 -290 145 0 145 0 0 313 c0 328 -5 369 -48 452 -26 51 -54 80 -111 117 -82 52 -211 75 -325 57z"></path>
    <path
      d="M8041 979 c-105 -18 -181 -66 -228 -147 -22 -36 -28 -61 -31 -127 -10 -183 59 -262 273 -314 125 -31 144 -39 152 -69 5 -20 0 -31 -22 -50 -27 -22 -35 -24 -110 -20 -70 4 -88 8 -126 34 -24 16 -49 33 -56 37 -7 5 -38 -26 -82 -84 -39 -50 -71 -96 -71 -100 0 -17 123 -89 180 -107 39 -12 90 -17 180 -17 109 0 133 3 184 24 68 27 139 88 167 143 15 30 19 58 19 142 0 58 -5 117 -11 133 -27 72 -104 119 -262 159 -107 26 -147 49 -147 83 0 53 90 65 179 25 l62 -27 82 81 81 81 -25 20 c-45 39 -163 90 -229 101 -74 11 -84 11 -159 -1z"></path>
    <path
      d="M2000 941 c0 -14 453 -941 459 -941 6 0 481 933 481 944 0 3 -69 6 -154 6 l-154 0 -70 -162 c-39 -90 -77 -178 -85 -195 l-13 -33 -85 193 -84 192 -148 3 c-89 1 -147 -1 -147 -7z"></path>
    <path
      d="M4265 930 c10 -30 444 -913 454 -923 8 -8 468 887 479 931 3 9 -32 12 -151 12 l-154 0 -83 -195 -83 -195 -57 127 c-30 71 -69 158 -84 196 l-29 67 -149 0 c-145 0 -149 -1 -143 -20z"></path>
    <path
      d="M3054 315 c-88 -52 -101 -180 -27 -257 34 -36 116 -55 165 -39 47 16 98 70 108 117 33 146 -118 256 -246 179z"></path>
  </g>
</svg>