<svg xmlns="http://www.w3.org/2000/svg" xmlns:xlink="http://www.w3.org/1999/xlink"
    xmlns:serif="http://www.serif.com/" version="1.1" xml:space="preserve"
    style="fill-rule:evenodd;clip-rule:evenodd;stroke-linejoin:round;stroke-miterlimit:2;"
    viewBox="33.29 50.69 833.41 159.13">    <g transform="matrix(1.30295,0,0,1.30295,-136.328,-75.738)">        <g>            <g id="path0" transform="matrix(1.83735,0,0,1.83735,83.9566,-163.262)">                <path d="M65.037,142.001C61.79,143.209 61.622,143.854 61.622,155.082L61.622,164.543L59.431,163.226C41.505,152.452 20.859,169.247 25.943,190.466C29.548,205.514 47.14,212.807 59.79,204.499L61.594,203.314L61.841,204.026C63.377,208.431 69.993,208.723 71.924,204.471C72.396,203.433 72.421,201.935 72.426,174.57L72.432,145.761L71.804,144.57C70.548,142.192 67.567,141.06 65.037,142.001M182.405,145.077C181.236,145.687 180.822,146.103 180.207,147.279L179.45,148.729L179.522,176.324L179.595,203.919L180.236,204.951C182.686,208.891 189.019,208.037 190.251,203.6C190.671,202.086 190.65,150.134 190.228,148.459C189.369,145.048 185.589,143.413 182.405,145.077M199.865,145.315C196.098,147.305 196.053,152.448 199.787,154.353C200.711,154.825 201.49,154.865 209.719,154.865L218.649,154.865L218.655,179.122C218.66,202.071 218.687,203.437 219.157,204.471C220.837,208.17 225.812,208.619 228.485,205.313L229.324,204.274L229.396,179.57L229.468,154.865L238.393,154.865C246.719,154.865 247.389,154.829 248.355,154.336C252.021,152.466 252.031,147.269 248.373,145.403C246.904,144.653 201.274,144.57 199.865,145.315M267.703,147.534C260.014,149.556 261.445,160.511 269.401,160.535C273.631,160.547 276.204,158.096 276.204,154.054C276.204,149.577 272.05,146.391 267.703,147.534M288.443,148.107C286.746,149.142 286.052,151.237 286.771,153.158C286.928,153.577 292.43,159.301 298.999,165.88L310.941,177.841L298.996,189.799C292.427,196.376 286.925,202.099 286.769,202.518C285.638,205.561 288.449,208.695 291.554,207.855C293.129,207.428 320.103,180.343 320.514,178.775C321.138,176.397 321.412,176.733 307.072,162.336C290.962,146.164 291.258,146.39 288.443,148.107M98.919,160.187C87.708,162.072 80.74,171.148 80.702,183.919C80.671,194.371 84.592,201.508 92.504,205.396C105.324,211.696 128.667,205.378 123.184,197.093C121.633,194.75 119.367,194.368 115.645,195.823C104.394,200.219 93.954,197.144 92.01,188.86L91.838,188.126L106.952,188.049L122.067,187.973L123.163,187.248C128.201,183.913 124.496,170.144 117.038,164.484C112.237,160.84 105.101,159.148 98.919,160.187M130.534,160.878C128.671,161.82 127.698,163.421 127.724,165.496C127.744,167.08 142.075,201.25 144.085,204.509C146.383,208.233 153.036,208.392 155.784,204.789C156.164,204.291 160.032,195.681 164.379,185.658L172.283,167.432L172.29,165.493C172.306,161.268 167.753,158.821 164.171,161.128C162.622,162.126 162.879,161.582 156.197,178.022C152.863,186.224 150.064,192.853 149.977,192.752C149.891,192.65 147.23,186.182 144.066,178.378C140.901,170.574 138.095,163.764 137.831,163.243C136.467,160.561 133.234,159.513 130.534,160.878M105.916,169.746C109.963,170.679 113.646,174.301 114.234,177.928L114.395,178.919L91.832,178.919L92.011,177.905C93.022,172.197 99.657,168.303 105.916,169.746M51.259,170.293C54.627,170.762 57.863,172.308 60.473,174.694L61.622,175.745L61.622,192.318L60.457,193.292C50.92,201.263 38.487,198.387 36.468,187.742C34.776,178.82 39.065,171.358 46.486,170.314C48.949,169.967 48.916,169.967 51.259,170.293M266.983,193.006C263.785,193.91 261.563,198.072 262.635,201.151C265.218,208.573 275.978,207.104 276.022,199.324C276.049,194.666 271.748,191.66 266.983,193.006M341.081,199.984C330.87,200.132 330.66,200.146 329.831,200.738C327.588,202.338 327.634,205.911 329.917,207.459C331.124,208.277 369.125,208.401 370.952,207.593C374.069,206.214 374.066,202.033 370.946,200.312C370.024,199.803 360.674,199.701 341.081,199.984" fill="currentColor"></path>            </g>        </g>    </g></svg>