<svg xmlns="http://www.w3.org/2000/svg" xmlns:xlink="http://www.w3.org/1999/xlink"
    xmlns:serif="http://www.serif.com/" version="1.1" xml:space="preserve"
    style="fill-rule:evenodd;clip-rule:evenodd;stroke-linejoin:round;stroke-miterlimit:2;"
    viewBox="51.28 46.41 797.43 243.58">    <g transform="matrix(1.29078,0,0,1.29078,-130.851,-72.6949)">        <g>            <g id="path1" transform="matrix(1.99374,0,0,1.99374,49.432,-200.245)">                <path d="M85.31,146.926C94.158,147.365 105.253,149.705 108.853,151.891C112.135,153.884 111.644,159.833 108.062,161.46C106.619,162.116 105.482,162.031 102.42,161.039C78.645,153.335 57.084,160.088 59.172,174.583C60.152,181.388 64.947,184.317 82.114,188.596C105.957,194.539 113.025,199.758 114.583,212.568C117.247,234.475 92.918,246.716 61.852,239.098C50.396,236.289 45.996,233.652 45.98,229.585C45.961,225.022 49.834,222.993 54.794,224.967C58.973,226.63 60.402,227.114 63.553,227.932C83.565,233.131 100.311,228.987 102.532,218.287C104.389,209.344 100.232,206.016 80.467,200.625C54.156,193.448 47.049,187.688 47.121,173.6C47.198,158.63 59.041,148.095 77.074,146.953C78.832,146.842 80.326,146.737 80.393,146.72C80.461,146.703 82.674,146.796 85.31,146.926M175.169,149.084C202.834,154.018 218.846,182.347 209.604,210.006C204.149,226.331 191.77,236.781 174.33,239.783C170.765,240.397 139.293,240.568 137.287,239.985C135.748,239.537 134.189,238.165 133.557,236.701C132.884,235.139 133.099,155.103 133.784,152.406C134.118,151.094 135.513,149.453 136.803,148.856C138.411,148.111 170.795,148.303 175.169,149.084M145.433,159.754C145.373,159.933 145.291,175.579 145.25,194.524L145.175,228.969L154.272,229.104C170.203,229.341 175.454,228.604 182.295,225.169C196.978,217.797 203.782,200.494 198.781,183.246C195.147,170.714 183.976,161.619 170.223,159.994C166.584,159.564 145.565,159.361 145.433,159.754M263.392,172.137C264.974,172.913 295.412,203.48 295.724,204.606C296.607,207.789 297.049,207.241 279.356,224.894C262.775,241.437 263.187,241.081 261.007,240.733C258.717,240.366 257.057,238.75 256.762,236.601C256.447,234.302 256.139,234.666 270.857,219.915L284.5,206.243L271.083,192.903C257.082,178.982 256.669,178.51 256.669,176.465C256.669,173.076 260.405,170.671 263.392,172.137M240.197,173.639C243.702,175.213 245.546,179.774 244.235,183.623C242.489,188.746 234.875,190.264 230.79,186.303C224.528,180.232 232.12,170.011 240.197,173.639M238.214,225.595C245.655,227.006 246.714,238.082 239.64,240.507C233.762,242.523 228.519,239.087 228.519,233.219C228.519,227.81 232.671,224.544 238.214,225.595M352.98,231.631C356.528,233.113 356.862,238.235 353.531,240.1L352.428,240.718L330.424,240.79C306.056,240.869 307.185,240.921 305.787,239.659C303.001,237.145 303.77,232.844 307.225,231.613C308.729,231.077 351.694,231.094 352.98,231.631" fill="currentColor"></path>            </g>        </g>    </g></svg>