<?xml version="1.0" encoding="utf-8"?>
<!-- Generator: Adobe Illustrator 26.5.0, SVG Export Plug-In . SVG Version: 6.00 Build 0)  -->
<svg version="1.1" id="Layer_1" xmlns="http://www.w3.org/2000/svg" xmlns:xlink="http://www.w3.org/1999/xlink" x="0px" y="0px"
	 viewBox="0 0 472.6 95.3" style="enable-background:new 0 0 472.6 95.3;" xml:space="preserve">
<g>
	<g>
		<g>
			<path fill="currentColor" d="M52.6,0.3c24,2.5,42.7,22.7,42.7,47.4C95.3,74,74,95.3,47.7,95.3S0,74,0,47.7S21.3,0,47.6,0
				C49.3,0,51,0.1,52.6,0.3z M55.1,92c24.5-4.1,41-27.3,36.9-51.8C88.5,19.8,71.9,5,52.4,2.9c-4-0.4-8-0.3-12.2,0.4
				c-4.9,0.8-9.4,2.4-13.6,4.6c21.6,7.3,33.2,18.4,34,29.8c0.4,7-2.9,12.1-7.2,16.3l30.5-2.1c0.9-0.1,1.1,0.9,0.1,1.2L11.2,74
				c7.4,10.2,18.9,17,31.7,18.3C46.9,92.8,51,92.7,55.1,92z M35.1,48.7c4-15-0.6-30.7-11.5-39C8.8,19,0.2,36.7,3.3,55.1
				c1,6.1,3.2,11.7,6.3,16.6C21.2,68.4,31.4,62.3,35.1,48.7z"/>
		</g>
	</g>
	<g>
		<g>
			<path fill="currentColor" d="M263.4,53.4h5.3c2.5,0,4.9,1.3,6.2,3.5l10.4,16.7c1.2,1.9,2.5,4.3,3.3,6.1h0.2c-0.1-1.7-0.2-4-0.2-5.7V53.4
				h7.6v37.3h-9.5l-12.7-20.2c-1.2-1.9-2.4-4.1-3.3-5.7h-0.1c0.1,1.6,0.2,3.5,0.2,5.3v20.6h-7.6V53.4z"/>
		</g>
		<path fill="currentColor" d="M302.2,72.1c0-10.3,5.9-19.2,17.7-19.2c11.7,0,17.7,8.5,17.7,19.1c0,10.3-6,19.2-17.7,19.2
			C308.2,91.2,302.2,82.7,302.2,72.1z M329,72c0-7.9-3.2-12.3-9.1-12.3s-9,4.5-9,12.4s3.1,12.3,9,12.3C325.8,84.4,329,79.9,329,72z"
			/>
		<path fill="currentColor" d="M365.6,72.1c0-10.3,5.9-19.2,17.7-19.2C395,52.9,401,61.4,401,72c0,10.3-6,19.2-17.7,19.2
			C371.6,91.2,365.6,82.7,365.6,72.1z M392.4,72c0-7.9-3.2-12.3-9.1-12.3s-9,4.5-9,12.4s3.1,12.3,9,12.3
			C389.2,84.4,392.4,79.9,392.4,72z"/>
		<path fill="currentColor" d="M342.5,90.7V53.4h4.2c2.4,0,4.4,2,4.4,4.4V84h13.8v6.7H342.5z"/>
		<path fill="currentColor" d="M405.4,72.5c0-10.4,5.7-19.6,19.2-19.6c4.9,0,8,0.8,10.5,1.9v7c-2.9-1.4-6.1-2.2-10.1-2.2
			c-7.3,0-10.9,4.6-10.9,12.8c0,8,3.8,12.1,10.7,12.1c1.9,0,3.1-0.2,4.3-0.7v-7.4h-2.7c-1.7,0-3.1-1.4-3.1-3.1v-3H437V89
			c-3.2,1.1-7.1,2.2-12.6,2.2C412.1,91.2,405.4,83.6,405.4,72.5z"/>
		<g>
			<g>
				<path fill="currentColor" d="M131.3,90.7V60.3h-10.1v-7h29v3.3c0,2-1.6,3.6-3.6,3.6h-6.6v30.4H131.3z"/>
			</g>
			<path fill="currentColor" d="M156.2,90.7V53.4h23.4v3.4c0,2-1.6,3.6-3.6,3.6h-11.2v8h12.5v6.2h-12.5v9.1h14.7v7H156.2z"/>
			<path fill="currentColor" d="M185.7,72.5c0-10.7,5.8-19.6,18-19.6c4.5,0,7.3,0.9,9.2,1.7v7.1c-1.8-1.1-4.6-1.9-8.3-1.9
				c-6.6,0-10.2,4.4-10.2,12.7c0,7.6,4,11.8,10.4,11.8c3.7,0,6.4-0.9,8.5-2.2v7.3c-2.5,1.1-5,1.8-9.5,1.8
				C191.8,91.2,185.7,83.2,185.7,72.5z"/>
			<polygon fill="currentColor" points="245.2,90.7 245.2,75 229.5,75 229.5,90.7 220.9,90.7 220.9,53.4 229.5,53.4 229.5,68.2 245.2,68.2
				245.2,53.4 253.9,53.4 253.9,90.7 			"/>
		</g>
		<path fill="currentColor" d="M451.3,90.7V76.3l-12.6-22.9h7.2c1.4,0,2.8,0.8,3.4,2.1l6.9,13.8l7.7-15.9h8.7L460,76.2l0,14.5H451.3z"/>
	</g>
	<g>
		<g>
			<polygon fill="currentColor" points="341.9,42 341.9,26.3 326.2,26.3 326.2,42 317.6,42 317.6,4.7 326.2,4.7 326.2,19.5 341.9,19.5
				341.9,4.7 350.6,4.7 350.6,42 			"/>
			<path fill="currentColor" d="M156.1,4.7V28c0,2.6,0.4,4.8,1.1,6.6c0.7,1.8,1.8,3.3,3.2,4.5c1.4,1.2,3.1,2,5,2.5c2,0.5,4.2,0.8,6.6,0.8
				c2.4,0,4.6-0.3,6.5-0.8c1.9-0.5,3.5-1.4,4.8-2.5c1.3-1.2,2.3-2.7,3-4.5c0.7-1.8,1.1-4,1.1-6.6V4.7h-8.1v23.1
				c0,2.4-0.6,4.3-1.7,5.7c-1.2,1.4-3.1,2.1-5.6,2.1c-2.5,0-4.3-0.7-5.5-2.1c-1.2-1.4-1.8-3.3-1.8-5.7V4.7H156.1z"/>
			<path fill="currentColor" d="M131.2,42V11.6H121v-7h29V8c0,2-1.6,3.6-3.6,3.6h-6.6V42H131.2z"/>
			<rect x="269.8" y="4.7" fill="currentColor" width="8.6" height="37.3"/>
			<path fill="currentColor" d="M241,24.6l0.3,0.4l11,14.2c1.4,1.8,3.5,2.8,5.8,2.8h6.9l-15.8-20.1l-0.2-0.3l0.2-0.3l13-16.7h-9l-11.9,16.1
				l-0.3,0.4l0-0.7V4.7h-8.6V42h8.6V25.2L241,24.6z"/>
			<path fill="currentColor" d="M221.2,42c-2.6,0-5-1.4-6.3-3.5l-6.7-11.1h-4.3V42h-8.6V4.7h15.4c3.9,0,7,1,9.2,3.1c2.1,2,3.2,4.8,3.2,8.3
				c0,1.8-0.5,3.5-1.4,5.3c-0.9,1.7-2.5,3.1-4.8,4.2l-0.5,0.2L226.9,42H221.2z M203.9,21.7h5c1.8,0,3.2-0.5,4.1-1.5
				c0.9-1,1.4-2.2,1.4-3.7c0-1.5-0.4-2.8-1.3-3.8c-0.9-1-2.3-1.5-4.1-1.5h-5V21.7z"/>
			<path fill="currentColor" d="M285.5,40.4v-7.2c2.7,1.3,6.3,2.5,9.9,2.5c4.2,0,6.3-1.4,6.3-4.2c0-3.2-2.9-3.6-8.6-6.1
				c-3.9-1.7-7.6-4.4-7.6-10.7c0-7.3,5.5-10.7,13.2-10.7c4.1,0,7.6,1,9.5,1.7v7c-2-0.9-5.4-2-8.9-2c-3.8,0-5.5,1.4-5.5,3.8
				c0,2.5,2.1,3.3,6,4.7c4.9,2.5,10.7,3.5,10.7,12c0,7.3-5.8,11.2-13.5,11.2C292.2,42.5,288.4,41.7,285.5,40.4z"/>
		</g>
	</g>
</g>
</svg>
